999
dxfrw 0.5.11
0
SECTION
2
HEADER
9
$ACADVER
1
AC1021
9
$HANDSEED
5
20000
9
$DWGCODEPAGE
3
ANSI_1252
9
$INSBASE
10
0
20
0
30
0
9
$EXTMIN
10
-80
20
-110
30
0
9
$EXTMAX
10
217
20
100
30
0
9
$LIMMIN
10
0
20
0
9
$LIMMAX
10
420
20
297
9
$ORTHOMODE
70
0
9
$LTSCALE
40
1
9
$TEXTSTYLE
7
STANDARD
9
$CLAYER
8
dimensions
9
$DIMASZ
40
2.5
9
$DIMLFAC
40
1
9
$DIMSCALE
40
1
9
$DIMEXO
40
0.625
9
$DIMEXE
40
1.25
9
$DIMTXT
40
2.5
9
$DIMTSZ
40
0
9
$DIMAUNIT
70
0
9
$DIMADEC
70
2
9
$DIMLUNIT
70
2
9
$DIMSTYLE
2
Standard
9
$DIMGAP
40
0.625
9
$DIMTIH
70
0
9
$LUNITS
70
2
9
$LUPREC
70
2
9
$AUNITS
70
0
9
$AUPREC
70
2
9
$SPLINESEGS
70
8
9
$GRIDMODE
70
1
9
$SNAPSTYLE
70
0
9
$GRIDUNIT
10
0
20
0
9
$PINSBASE
10
71.2
20
112.95
30
0
9
$PLIMMIN
10
0
20
0
9
$PLIMMAX
10
279.4
20
215.9
9
$INSUNITS
70
4
9
$PSVPSCALE
40
1
0
ENDSEC
0
SECTION
2
CLASSES
0
ENDSEC
0
SECTION
2
TABLES
0
TABLE
2
VPORT
5
8
330
0
100
AcDbSymbolTable
70
1
0
VPORT
5
31
330
2
100
AcDbSymbolTableRecord
100
AcDbViewportTableRecord
2
*ACTIVE
70
0
10
0
20
0
11
1
21
1
12
98.2848134049
22
28.9741357437
13
0
23
0
14
10
24
10
15
10
25
10
16
0
26
0
36
1
17
0
27
0
37
0
40
128.395189766
41
2.23451327434
42
50
43
0
44
0
50
0
51
0
71
0
72
100
73
1
74
3
75
0
76
1
77
0
78
0
281
0
65
1
110
0
120
0
130
0
111
1
121
0
131
0
112
0
122
1
132
0
79
0
146
0
348
10020
60
7
61
5
292
1
282
1
141
0
142
0
63
250
421
3358443
0
ENDTAB
0
TABLE
2
LTYPE
5
5
330
0
100
AcDbSymbolTable
70
4
0
LTYPE
5
14
330
5
100
AcDbSymbolTableRecord
100
AcDbLinetypeTableRecord
2
ByBlock
70
0
3

72
65
73
0
40
0
0
LTYPE
5
15
330
5
100
AcDbSymbolTableRecord
100
AcDbLinetypeTableRecord
2
ByLayer
70
0
3

72
65
73
0
40
0
0
LTYPE
5
16
330
5
100
AcDbSymbolTableRecord
100
AcDbLinetypeTableRecord
2
Continuous
70
0
3
Solid line
72
65
73
0
40
0
0
LTYPE
5
32
330
5
100
AcDbSymbolTableRecord
100
AcDbLinetypeTableRecord
2
DOT
70
0
3
Dot . . . . . . . . . . . . . . . . . . . . . .
72
65
73
2
40
6.35
49
0
74
0
49
-6.35
74
0
0
LTYPE
5
33
330
5
100
AcDbSymbolTableRecord
100
AcDbLinetypeTableRecord
2
DOT2
70
0
3
Dot (.5x) .....................................
72
65
73
2
40
3.175
49
0
74
0
49
-3.175
74
0
0
LTYPE
5
34
330
5
100
AcDbSymbolTableRecord
100
AcDbLinetypeTableRecord
2
DOTX2
70
0
3
Dot (2x) .  .  .  .  .  .  .  .  .  .  .  .  .
72
65
73
2
40
12.7
49
0
74
0
49
-12.7
74
0
0
LTYPE
5
35
330
5
100
AcDbSymbolTableRecord
100
AcDbLinetypeTableRecord
2
DASHED
70
0
3
Dot . . . . . . . . . . . . . . . . . . . . . .
72
65
73
2
40
19.05
49
12.7
74
0
49
-6.35
74
0
0
LTYPE
5
36
330
5
100
AcDbSymbolTableRecord
100
AcDbLinetypeTableRecord
2
DASHED2
70
0
3
Dashed (.5x) _ _ _ _ _ _ _ _ _ _ _ _ _ _ _ _ _
72
65
73
2
40
9.525
49
6.35
74
0
49
-3.175
74
0
0
LTYPE
5
37
330
5
100
AcDbSymbolTableRecord
100
AcDbLinetypeTableRecord
2
DASHEDX2
70
0
3
Dashed (2x) ____  ____  ____  ____  ____  ___
72
65
73
2
40
38.1
49
25.4
74
0
49
-12.7
74
0
0
LTYPE
5
38
330
5
100
AcDbSymbolTableRecord
100
AcDbLinetypeTableRecord
2
DASHDOT
70
0
3
Dash dot __ . __ . __ . __ . __ . __ . __ . __
72
65
73
4
40
25.4
49
12.7
74
0
49
-6.35
74
0
49
0
74
0
49
-6.35
74
0
0
LTYPE
5
39
330
5
100
AcDbSymbolTableRecord
100
AcDbLinetypeTableRecord
2
DASHDOT2
70
0
3
Dash dot (.5x) _._._._._._._._._._._._._._._.
72
65
73
4
40
12.7
49
6.35
74
0
49
-3.175
74
0
49
0
74
0
49
-3.175
74
0
0
LTYPE
5
3A
330
5
100
AcDbSymbolTableRecord
100
AcDbLinetypeTableRecord
2
DASHDOTX2
70
0
3
Dash dot (2x) ____  .  ____  .  ____  .  ___
72
65
73
4
40
50.8
49
25.4
74
0
49
-12.7
74
0
49
0
74
0
49
-12.7
74
0
0
LTYPE
5
3B
330
5
100
AcDbSymbolTableRecord
100
AcDbLinetypeTableRecord
2
DIVIDE
70
0
3
Divide ____ . . ____ . . ____ . . ____ . . ____
72
65
73
6
40
31.75
49
12.7
74
0
49
-6.35
74
0
49
0
74
0
49
-6.35
74
0
49
0
74
0
49
-6.35
74
0
0
LTYPE
5
3C
330
5
100
AcDbSymbolTableRecord
100
AcDbLinetypeTableRecord
2
DIVIDE2
70
0
3
Divide (.5x) __..__..__..__..__..__..__..__.._
72
65
73
6
40
15.875
49
6.35
74
0
49
-3.175
74
0
49
0
74
0
49
-3.175
74
0
49
0
74
0
49
-3.175
74
0
0
LTYPE
5
3D
330
5
100
AcDbSymbolTableRecord
100
AcDbLinetypeTableRecord
2
DIVIDEX2
70
0
3
Divide (2x) ________  .  .  ________  .  .  _
72
65
73
6
40
63.5
49
25.4
74
0
49
-12.7
74
0
49
0
74
0
49
-12.7
74
0
49
0
74
0
49
-12.7
74
0
0
LTYPE
5
3E
330
5
100
AcDbSymbolTableRecord
100
AcDbLinetypeTableRecord
2
BORDER
70
0
3
Border __ __ . __ __ . __ __ . __ __ . __ __ .
72
65
73
6
40
44.45
49
12.7
74
0
49
-6.35
74
0
49
12.7
74
0
49
-6.35
74
0
49
0
74
0
49
-6.35
74
0
0
LTYPE
5
3F
330
5
100
AcDbSymbolTableRecord
100
AcDbLinetypeTableRecord
2
BORDER2
70
0
3
Border (.5x) __.__.__.__.__.__.__.__.__.__.__.
72
65
73
6
40
22.225
49
6.35
74
0
49
-3.175
74
0
49
6.35
74
0
49
-3.175
74
0
49
0
74
0
49
-3.175
74
0
0
LTYPE
5
40
330
5
100
AcDbSymbolTableRecord
100
AcDbLinetypeTableRecord
2
BORDERX2
70
0
3
Border (2x) ____  ____  .  ____  ____  .  ___
72
65
73
6
40
88.9
49
25.4
74
0
49
-12.7
74
0
49
25.4
74
0
49
-12.7
74
0
49
0
74
0
49
-12.7
74
0
0
LTYPE
5
41
330
5
100
AcDbSymbolTableRecord
100
AcDbLinetypeTableRecord
2
CENTER
70
0
3
Center ____ _ ____ _ ____ _ ____ _ ____ _ ____
72
65
73
4
40
50.8
49
31.75
74
0
49
-6.35
74
0
49
6.35
74
0
49
-6.35
74
0
0
LTYPE
5
42
330
5
100
AcDbSymbolTableRecord
100
AcDbLinetypeTableRecord
2
CENTER2
70
0
3
Center (.5x) ___ _ ___ _ ___ _ ___ _ ___ _ ___
72
65
73
4
40
28.575
49
19.05
74
0
49
-3.175
74
0
49
3.175
74
0
49
-3.175
74
0
0
LTYPE
5
43
330
5
100
AcDbSymbolTableRecord
100
AcDbLinetypeTableRecord
2
CENTERX2
70
0
3
Center (2x) ________  __  ________  __  _____
72
65
73
4
40
101.6
49
63.5
74
0
49
-12.7
74
0
49
12.7
74
0
49
-12.7
74
0
0
ENDTAB
0
TABLE
2
LAYER
5
2
330
0
100
AcDbSymbolTable
70
1
0
LAYER
5
10
330
2
100
AcDbSymbolTableRecord
100
AcDbLayerTableRecord
2
0
70
5
62
7
6
CONTINUOUS
290
0
370
-3
390
F
0
LAYER
5
44
330
2
100
AcDbSymbolTableRecord
100
AcDbLayerTableRecord
2
PAPERSIZE
70
4
62
136
6
CONTINUOUS
370
-3
390
F
0
LAYER
5
45
330
2
100
AcDbSymbolTableRecord
100
AcDbLayerTableRecord
2
TITLEBLOCK
70
4
62
7
6
CONTINUOUS
370
35
390
F
0
LAYER
5
46
330
2
100
AcDbSymbolTableRecord
100
AcDbLayerTableRecord
2
dimensions
70
4
62
7
6
CONTINUOUS
370
25
390
F
0
LAYER
5
47
330
2
100
AcDbSymbolTableRecord
100
AcDbLayerTableRecord
2
edges
70
4
62
7
6
DOT2
370
25
390
F
0
LAYER
5
48
330
2
100
AcDbSymbolTableRecord
100
AcDbLayerTableRecord
2
hatches
70
5
62
7
6
CONTINUOUS
290
0
370
-3
390
F
0
LAYER
5
49
330
2
100
AcDbSymbolTableRecord
100
AcDbLayerTableRecord
2
infobox
70
4
62
7
6
CONTINUOUS
370
0
390
F
0
LAYER
5
4A
330
2
100
AcDbSymbolTableRecord
100
AcDbLayerTableRecord
2
outline
70
4
62
7
6
CONTINUOUS
370
35
390
F
0
ENDTAB
0
TABLE
2
STYLE
5
3
330
0
100
AcDbSymbolTable
70
3
0
STYLE
5
4B
330
2
100
AcDbSymbolTableRecord
100
AcDbTextStyleTableRecord
2
standard
70
0
40
0
41
1
50
0
71
0
42
1
3
standard
4

0
STYLE
5
4C
330
2
100
AcDbSymbolTableRecord
100
AcDbTextStyleTableRecord
2
iso
70
0
40
0
41
1
50
0
71
0
42
1
3
iso
4

0
ENDTAB
0
TABLE
2
VIEW
5
6
330
0
100
AcDbSymbolTable
70
0
0
ENDTAB
0
TABLE
2
UCS
5
7
330
0
100
AcDbSymbolTable
70
0
0
ENDTAB
0
TABLE
2
APPID
5
9
330
0
100
AcDbSymbolTable
70
1
0
APPID
5
12
330
9
100
AcDbSymbolTableRecord
100
AcDbRegAppTableRecord
2
ACAD
70
0
0
ENDTAB
0
TABLE
2
DIMSTYLE
5
A
330
0
100
AcDbSymbolTable
70
1
100
AcDbDimStyleTable
71
1
0
DIMSTYLE
105
4D
330
A
100
AcDbSymbolTableRecord
100
AcDbDimStyleTableRecord
2
Standard
70
0
40
1
41
2.5
42
0.625
43
0.38
44
1.25
45
0
46
0
47
0
48
0
140
2.5
141
0.09
142
0
143
25.4
144
1
145
0
146
1
147
0.625
148
0
71
0
72
0
73
0
74
1
75
0
76
0
77
0
78
0
79
0
170
0
171
2
172
0
173
0
174
0
175
0
176
0
177
0
178
0
179
0
271
4
272
4
273
2
274
2
275
0
276
0
277
2
278
46
279
0
280
0
281
0
282
0
283
1
284
0
285
0
286
0
288
0
289
3
340
Standard
341

371
-2
372
-2
0
ENDTAB
0
TABLE
2
BLOCK_RECORD
5
1
330
0
100
AcDbSymbolTable
70
2
0
BLOCK_RECORD
5
1F
330
1
100
AcDbSymbolTableRecord
100
AcDbBlockTableRecord
2
*Model_Space
70
0
280
1
281
0
0
BLOCK_RECORD
5
1E
330
1
100
AcDbSymbolTableRecord
100
AcDbBlockTableRecord
2
*Paper_Space
70
0
280
1
281
0
0
BLOCK_RECORD
5
4E
330
1
100
AcDbSymbolTableRecord
100
AcDbBlockTableRecord
2
*D6
70
0
280
1
281
0
0
BLOCK_RECORD
5
51
330
1
100
AcDbSymbolTableRecord
100
AcDbBlockTableRecord
2
*D4
70
0
280
1
281
0
0
BLOCK_RECORD
5
54
330
1
100
AcDbSymbolTableRecord
100
AcDbBlockTableRecord
2
*D3
70
0
280
1
281
0
0
BLOCK_RECORD
5
57
330
1
100
AcDbSymbolTableRecord
100
AcDbBlockTableRecord
2
*D9
70
0
280
1
281
0
0
BLOCK_RECORD
5
5A
330
1
100
AcDbSymbolTableRecord
100
AcDbBlockTableRecord
2
*D7
70
0
280
1
281
0
0
BLOCK_RECORD
5
5D
330
1
100
AcDbSymbolTableRecord
100
AcDbBlockTableRecord
2
*D11
70
0
280
1
281
0
0
BLOCK_RECORD
5
60
330
1
100
AcDbSymbolTableRecord
100
AcDbBlockTableRecord
2
*D5
70
0
280
1
281
0
0
BLOCK_RECORD
5
63
330
1
100
AcDbSymbolTableRecord
100
AcDbBlockTableRecord
2
*D8
70
0
280
1
281
0
0
BLOCK_RECORD
5
66
330
1
100
AcDbSymbolTableRecord
100
AcDbBlockTableRecord
2
*D10
70
0
280
1
281
0
0
BLOCK_RECORD
5
69
330
1
100
AcDbSymbolTableRecord
100
AcDbBlockTableRecord
2
*D12
70
0
280
1
281
0
0
BLOCK_RECORD
5
6C
330
1
100
AcDbSymbolTableRecord
100
AcDbBlockTableRecord
2
*D1
70
0
280
1
281
0
0
BLOCK_RECORD
5
6F
330
1
100
AcDbSymbolTableRecord
100
AcDbBlockTableRecord
2
*D2
70
0
280
1
281
0
0
BLOCK_RECORD
5
72
330
1
100
AcDbSymbolTableRecord
100
AcDbBlockTableRecord
2
A4_Landscape_ISO7200-0
70
0
280
1
281
0
0
BLOCK_RECORD
5
75
330
1
100
AcDbSymbolTableRecord
100
AcDbBlockTableRecord
2
long_reamer_facer_outline-0
70
0
280
1
281
0
0
ENDTAB
0
ENDSEC
0
SECTION
2
BLOCKS
0
BLOCK
5
20
330
1F
100
AcDbEntity
8
0
100
AcDbBlockBegin
2
*Model_Space
70
0
10
0
20
0
30
0
3
*Model_Space
1

0
ENDBLK
5
21
330
1F
100
AcDbEntity
8
0
100
AcDbBlockEnd
0
BLOCK
5
1C
330
1B
100
AcDbEntity
8
0
100
AcDbBlockBegin
2
*Paper_Space
70
0
10
0
20
0
30
0
3
*Paper_Space
1

0
ENDBLK
5
1D
330
1F
100
AcDbEntity
8
0
100
AcDbBlockEnd
0
BLOCK
5
4F
330
4E
100
AcDbEntity
8
0
100
AcDbBlockBegin
2
*D6
70
1
10
0
20
0
3
*D6
1

0
LINE
5
78
100
AcDbEntity
8
dimensions
6
CONTINUOUS
62
7
370
0
100
AcDbLine
10
-0.108793627882
20
-5.71166546381
11
-11
21
-20
0
LINE
5
79
100
AcDbEntity
8
dimensions
6
CONTINUOUS
62
7
370
0
100
AcDbLine
10
-11
20
-20
11
-14
21
-20
0
SOLID
5
7A
100
AcDbEntity
8
dimensions
6
CONTINUOUS
62
7
370
0
100
AcDbTrace
10
-0.108793627882
20
-5.71166546381
30
0
11
-1.29325742072
21
-7.95227663931
31
0
12
-1.95540096105
22
-7.44756127676
32
0
13
-1.95540096105
23
-7.44756127676
33
0
0
ENDBLK
5
50
330
4E
100
AcDbEntity
8
0
100
AcDbBlockEnd
0
BLOCK
5
52
330
51
100
AcDbEntity
8
0
100
AcDbBlockBegin
2
*D4
70
1
10
0
20
0
3
*D4
1

0
LINE
5
7B
100
AcDbEntity
8
dimensions
6
CONTINUOUS
62
7
370
0
100
AcDbLine
10
25
20
20
11
145
21
20
0
SOLID
5
7C
100
AcDbEntity
8
dimensions
6
CONTINUOUS
62
7
370
0
100
AcDbTrace
10
25
20
20
30
0
11
27.5
21
20.4162846578
31
0
12
27.5
22
19.5837153422
32
0
13
27.5
23
19.5837153422
33
0
0
SOLID
5
7D
100
AcDbEntity
8
dimensions
6
CONTINUOUS
62
7
370
0
100
AcDbTrace
10
145
20
20
30
0
11
142.5
21
19.5837153422
31
0
12
142.5
22
20.4162846578
32
0
13
142.5
23
20.4162846578
33
0
0
MTEXT
5
7E
100
AcDbEntity
8
dimensions
6
CONTINUOUS
62
7
370
0
100
AcDbMText
10
85
20
21.875
30
0
40
2.5
41
53.5416676746
71
5
72
1
1
875mm or longer (not to scale)
7
standard
210
0
220
0
230
1
50
0
73
2
44
1
0
LINE
5
7F
100
AcDbEntity
8
dimensions
6
CONTINUOUS
62
7
370
0
100
AcDbLine
10
25
20
8.5625
11
25
21
21.25
0
LINE
5
80
100
AcDbEntity
8
dimensions
6
CONTINUOUS
62
7
370
0
100
AcDbLine
10
145
20
8.5625
11
145
21
21.25
0
ENDBLK
5
53
330
51
100
AcDbEntity
8
0
100
AcDbBlockEnd
0
BLOCK
5
55
330
54
100
AcDbEntity
8
0
100
AcDbBlockBegin
2
*D3
70
1
10
0
20
0
3
*D3
1

0
LINE
5
81
100
AcDbEntity
8
dimensions
6
CONTINUOUS
62
7
370
0
100
AcDbLine
10
28
20
4.425
11
28
21
-4.425
0
SOLID
5
82
100
AcDbEntity
8
dimensions
6
CONTINUOUS
62
7
370
0
100
AcDbTrace
10
28
20
4.425
30
0
11
28.4162846578
21
1.925
31
0
12
27.5837153422
22
1.925
32
0
13
27.5837153422
23
1.925
33
0
0
SOLID
5
83
100
AcDbEntity
8
dimensions
6
CONTINUOUS
62
7
370
0
100
AcDbTrace
10
28
20
-4.425
30
0
11
27.5837153422
21
-1.925
31
0
12
28.4162846578
22
-1.925
32
0
13
28.4162846578
23
-1.925
33
0
0
MTEXT
5
84
100
AcDbEntity
8
dimensions
6
CONTINUOUS
62
7
370
0
100
AcDbMText
10
31
20
2.2962127484e-16
30
0
40
2.5
41
8.33333333333
71
5
72
1
1
%%C8.85
7
standard
210
0
220
0
230
1
50
90
73
2
44
1
0
LINE
5
85
100
AcDbEntity
8
dimensions
6
CONTINUOUS
62
7
370
0
100
AcDbLine
10
25.625
20
4.425
11
29.25
21
4.425
0
LINE
5
86
100
AcDbEntity
8
dimensions
6
CONTINUOUS
62
7
370
0
100
AcDbLine
10
25.625
20
-4.425
11
29.25
21
-4.425
0
ENDBLK
5
56
330
54
100
AcDbEntity
8
0
100
AcDbBlockEnd
0
BLOCK
5
58
330
57
100
AcDbEntity
8
0
100
AcDbBlockBegin
2
*D9
70
1
10
0
20
0
3
*D9
1

0
LINE
5
87
100
AcDbEntity
8
dimensions
6
CONTINUOUS
62
7
370
0
100
AcDbLine
10
85
20
-7.9375
11
92
21
-20
0
LINE
5
88
100
AcDbEntity
8
dimensions
6
CONTINUOUS
62
7
370
0
100
AcDbLine
10
92
20
-20
11
95
21
-20
0
SOLID
5
89
100
AcDbEntity
8
dimensions
6
CONTINUOUS
62
7
370
0
100
AcDbTrace
10
85
20
-7.9375
30
0
11
86.6148488174
21
-9.89084487823
31
0
12
85.8947475698
22
-10.3087274675
32
0
13
85.8947475698
23
-10.3087274675
33
0
0
ENDBLK
5
59
330
57
100
AcDbEntity
8
0
100
AcDbBlockEnd
0
BLOCK
5
5B
330
5A
100
AcDbEntity
8
0
100
AcDbBlockBegin
2
*D7
70
1
10
0
20
0
3
*D7
1

0
LINE
5
8A
100
AcDbEntity
8
dimensions
6
CONTINUOUS
62
7
370
0
100
AcDbLine
10
13.6666666667
20
-5.55625
11
25
21
-20
0
LINE
5
8B
100
AcDbEntity
8
dimensions
6
CONTINUOUS
62
7
370
0
100
AcDbLine
10
25
20
-20
11
30
21
-20
0
SOLID
5
8C
100
AcDbEntity
8
dimensions
6
CONTINUOUS
62
7
370
0
100
AcDbTrace
10
13.6666666667
20
-5.55625
30
0
11
15.5374307711
21
-7.26608466505
31
0
12
14.8824287213
22
-7.78003405939
32
0
13
14.8824287213
23
-7.78003405939
33
0
0
ENDBLK
5
5C
330
5A
100
AcDbEntity
8
0
100
AcDbBlockEnd
0
BLOCK
5
5E
330
5D
100
AcDbEntity
8
0
100
AcDbBlockBegin
2
*D11
70
1
10
0
20
0
3
*D11
1

0
LINE
5
8D
100
AcDbEntity
8
dimensions
6
CONTINUOUS
62
7
370
0
100
AcDbLine
10
15
20
25
11
30
21
25
0
SOLID
5
8E
100
AcDbEntity
8
dimensions
6
CONTINUOUS
62
7
370
0
100
AcDbTrace
10
20
20
25
30
0
11
17.5
21
24.5837153422
31
0
12
17.5
22
25.4162846578
32
0
13
17.5
23
25.4162846578
33
0
0
SOLID
5
8F
100
AcDbEntity
8
dimensions
6
CONTINUOUS
62
7
370
0
100
AcDbTrace
10
25
20
25
30
0
11
27.5
21
25.4162846578
31
0
12
27.5
22
24.5837153422
32
0
13
27.5
23
24.5837153422
33
0
0
MTEXT
5
90
100
AcDbEntity
8
dimensions
6
CONTINUOUS
62
7
370
0
100
AcDbMText
10
22.5
20
26.875
30
0
40
2.5
41
1.11111111111
71
5
72
1
1
5
7
standard
210
0
220
0
230
1
50
0
73
2
44
1
0
LINE
5
91
100
AcDbEntity
8
dimensions
6
CONTINUOUS
62
7
370
0
100
AcDbLine
10
20
20
6.18125
11
20
21
26.25
0
LINE
5
92
100
AcDbEntity
8
dimensions
6
CONTINUOUS
62
7
370
0
100
AcDbLine
10
25
20
8.5625
11
25
21
26.25
0
ENDBLK
5
5F
330
5D
100
AcDbEntity
8
0
100
AcDbBlockEnd
0
BLOCK
5
61
330
60
100
AcDbEntity
8
0
100
AcDbBlockBegin
2
*D5
70
1
10
0
20
0
3
*D5
1

0
LINE
5
93
100
AcDbEntity
8
dimensions
6
CONTINUOUS
62
7
370
0
100
AcDbLine
10
0
20
20
11
20
21
20
0
SOLID
5
94
100
AcDbEntity
8
dimensions
6
CONTINUOUS
62
7
370
0
100
AcDbTrace
10
0
20
20
30
0
11
2.5
21
20.4162846578
31
0
12
2.5
22
19.5837153422
32
0
13
2.5
23
19.5837153422
33
0
0
SOLID
5
95
100
AcDbEntity
8
dimensions
6
CONTINUOUS
62
7
370
0
100
AcDbTrace
10
20
20
20
30
0
11
17.5
21
19.5837153422
31
0
12
17.5
22
20.4162846578
32
0
13
17.5
23
20.4162846578
33
0
0
MTEXT
5
96
100
AcDbEntity
8
dimensions
6
CONTINUOUS
62
7
370
0
100
AcDbMText
10
10
20
21.875
30
0
40
2.5
41
8.05555555556
71
5
72
1
1
20mm
7
standard
210
0
220
0
230
1
50
0
73
2
44
1
0
LINE
5
97
100
AcDbEntity
8
dimensions
6
CONTINUOUS
62
7
370
0
100
AcDbLine
10
3.82702124734e-17
20
5.18125
11
7.65404249467e-17
21
21.25
0
LINE
5
98
100
AcDbEntity
8
dimensions
6
CONTINUOUS
62
7
370
0
100
AcDbLine
10
20
20
6.18125
11
20
21
21.25
0
ENDBLK
5
62
330
60
100
AcDbEntity
8
0
100
AcDbBlockEnd
0
BLOCK
5
64
330
63
100
AcDbEntity
8
0
100
AcDbBlockBegin
2
*D8
70
1
10
0
20
0
3
*D8
1

0
ENDBLK
5
65
330
63
100
AcDbEntity
8
0
100
AcDbBlockEnd
0
BLOCK
5
67
330
66
100
AcDbEntity
8
0
100
AcDbBlockBegin
2
*D10
70
1
10
0
20
0
3
*D10
1

0
LINE
5
99
100
AcDbEntity
8
dimensions
6
CONTINUOUS
62
7
370
0
100
AcDbLine
10
-10
20
5.55625
11
-10
21
-5.55625
0
SOLID
5
9A
100
AcDbEntity
8
dimensions
6
CONTINUOUS
62
7
370
0
100
AcDbTrace
10
-10
20
5.55625
30
0
11
-9.58371534223
21
3.05625
31
0
12
-10.4162846578
22
3.05625
32
0
13
-10.4162846578
23
3.05625
33
0
0
SOLID
5
9B
100
AcDbEntity
8
dimensions
6
CONTINUOUS
62
7
370
0
100
AcDbTrace
10
-10
20
-5.55625
30
0
11
-10.4162846578
21
-3.05625
31
0
12
-9.58371534223
22
-3.05625
32
0
13
-9.58371534223
23
-3.05625
33
0
0
MTEXT
5
9C
100
AcDbEntity
8
dimensions
6
CONTINUOUS
62
7
370
0
100
AcDbMText
10
-10
20
12.7090277778
30
0
40
2.5
41
13.0555555556
71
5
72
1
1
%%C11.11mm
7
standard
210
0
220
0
230
1
50
90
73
2
44
1
0
LINE
5
9D
100
AcDbEntity
8
dimensions
6
CONTINUOUS
62
7
370
0
100
AcDbLine
10
0.375
20
5.55625
11
-11.25
21
5.55625
0
LINE
5
9E
100
AcDbEntity
8
dimensions
6
CONTINUOUS
62
7
370
0
100
AcDbLine
10
0.375
20
-5.55625
11
-11.25
21
-5.55625
0
ENDBLK
5
68
330
66
100
AcDbEntity
8
0
100
AcDbBlockEnd
0
BLOCK
5
6A
330
69
100
AcDbEntity
8
0
100
AcDbBlockBegin
2
*D12
70
1
10
0
20
0
3
*D12
1

0
LINE
5
9F
100
AcDbEntity
8
dimensions
6
CONTINUOUS
62
7
370
0
100
AcDbLine
10
78.875
20
7.9375
11
78.875
21
-7.9375
0
SOLID
5
A0
100
AcDbEntity
8
dimensions
6
CONTINUOUS
62
7
370
0
100
AcDbTrace
10
78.875
20
7.9375
30
0
11
79.2912846578
21
5.4375
31
0
12
78.4587153422
22
5.4375
32
0
13
78.4587153422
23
5.4375
33
0
0
SOLID
5
A1
100
AcDbEntity
8
dimensions
6
CONTINUOUS
62
7
370
0
100
AcDbTrace
10
78.875
20
-7.9375
30
0
11
78.4587153422
21
-5.4375
31
0
12
79.2912846578
22
-5.4375
32
0
13
79.2912846578
23
-5.4375
33
0
0
MTEXT
5
A2
100
AcDbEntity
8
dimensions
6
CONTINUOUS
62
7
370
0
100
AcDbMText
10
77
20
2.2962127484e-16
30
0
40
2.5
41
10
71
5
72
1
1
%%C15.48
7
standard
210
0
220
0
230
1
50
90
73
2
44
1
0
LINE
5
A3
100
AcDbEntity
8
dimensions
6
CONTINUOUS
62
7
370
0
100
AcDbLine
10
78.25
20
7.9375
11
77.625
21
7.9375
0
LINE
5
A4
100
AcDbEntity
8
dimensions
6
CONTINUOUS
62
7
370
0
100
AcDbLine
10
78.25
20
-7.9375
11
77.625
21
-7.9375
0
ENDBLK
5
6B
330
69
100
AcDbEntity
8
0
100
AcDbBlockEnd
0
BLOCK
5
6D
330
6C
100
AcDbEntity
8
0
100
AcDbBlockBegin
2
*D1
70
1
10
0
20
0
3
*D1
1

0
ENDBLK
5
6E
330
6C
100
AcDbEntity
8
0
100
AcDbBlockEnd
0
BLOCK
5
70
330
6F
100
AcDbEntity
8
0
100
AcDbBlockBegin
2
*D2
70
1
10
0
20
0
3
*D2
1

0
ENDBLK
5
71
330
6F
100
AcDbEntity
8
0
100
AcDbBlockEnd
0
BLOCK
5
73
330
72
100
AcDbEntity
8
0
100
AcDbBlockBegin
2
A4_Landscape_ISO7200-0
70
0
10
0
20
0
3
A4_Landscape_ISO7200-0
1

0
LINE
5
A5
100
AcDbEntity
8
PAPERSIZE
6
ByLayer
62
256
370
-1
100
AcDbLine
10
0
20
-5
11
0
21
0
0
LINE
5
A6
100
AcDbEntity
8
PAPERSIZE
6
ByLayer
62
256
370
-1
100
AcDbLine
10
0
20
0
11
5
21
0
0
LINE
5
A7
100
AcDbEntity
8
PAPERSIZE
6
ByLayer
62
256
370
-1
100
AcDbLine
10
0
20
-205
11
0
21
-210
0
LINE
5
A8
100
AcDbEntity
8
PAPERSIZE
6
ByLayer
62
256
370
-1
100
AcDbLine
10
0
20
-210
11
5
21
-210
0
LINE
5
A9
100
AcDbEntity
8
PAPERSIZE
6
ByLayer
62
256
370
-1
100
AcDbLine
10
292
20
0
11
297
21
0
0
LINE
5
AA
100
AcDbEntity
8
PAPERSIZE
6
ByLayer
62
256
370
-1
100
AcDbLine
10
297
20
0
11
297
21
-5
0
LINE
5
AB
100
AcDbEntity
8
PAPERSIZE
6
ByLayer
62
256
370
-1
100
AcDbLine
10
292
20
-210
11
297
21
-210
0
LINE
5
AC
100
AcDbEntity
8
PAPERSIZE
6
ByLayer
62
256
370
-1
100
AcDbLine
10
297
20
-210
11
297
21
-205
0
LINE
5
AD
100
AcDbEntity
8
TITLEBLOCK
6
ByLayer
62
7
370
-1
100
AcDbLine
10
96.8210526316
20
-162
11
276.821052632
21
-162
0
LINE
5
AE
100
AcDbEntity
8
TITLEBLOCK
6
ByLayer
62
7
370
-1
100
AcDbLine
10
276.821052632
20
-162
11
276.821052632
21
-200
0
LINE
5
AF
100
AcDbEntity
8
TITLEBLOCK
6
ByLayer
62
7
370
-1
100
AcDbLine
10
276.821052632
20
-200
11
96.8210526316
21
-200
0
LINE
5
B0
100
AcDbEntity
8
TITLEBLOCK
6
ByLayer
62
7
370
-1
100
AcDbLine
10
96.8210526316
20
-200
11
96.8210526316
21
-162
0
LINE
5
B1
100
AcDbEntity
8
TITLEBLOCK
6
ByLayer
62
7
370
-1
100
AcDbLine
10
96.8210526316
20
-173
11
276.821052632
21
-173
0
LINE
5
B2
100
AcDbEntity
8
TITLEBLOCK
6
ByLayer
62
7
370
-1
100
AcDbLine
10
156.821052632
20
-162
11
156.821052632
21
-173
0
LINE
5
B3
100
AcDbEntity
8
TITLEBLOCK
6
ByLayer
62
7
370
-1
100
AcDbLine
10
216.821052632
20
-162
11
216.821052632
21
-200
0
LINE
5
B4
100
AcDbEntity
8
TITLEBLOCK
6
ByLayer
62
7
370
-1
100
AcDbLine
10
236.821052632
20
-162
11
236.821052632
21
-173
0
LINE
5
B5
100
AcDbEntity
8
TITLEBLOCK
6
ByLayer
62
7
370
-1
100
AcDbLine
10
256.821052632
20
-162
11
256.821052632
21
-173
0
LINE
5
B6
100
AcDbEntity
8
TITLEBLOCK
6
ByLayer
62
7
370
-1
100
AcDbLine
10
216.821052632
20
-189
11
276.821052632
21
-189
0
LINE
5
B7
100
AcDbEntity
8
TITLEBLOCK
6
ByLayer
62
7
370
-1
100
AcDbLine
10
256.821052632
20
-189
11
256.821052632
21
-200
0
TEXT
5
B8
100
AcDbEntity
8
TITLEBLOCK
6
ByLayer
62
256
370
20
100
AcDbText
10
97.8210526316
20
-165.5
30
0
40
2.2
1
Created by:
50
0
41
1
51
0
7
standard
71
0
210
0
220
0
230
1
100
AcDbText
0
TEXT
5
B9
100
AcDbEntity
8
TITLEBLOCK
6
ByLayer
62
256
370
20
100
AcDbText
10
157.821052632
20
-165.5
30
0
40
2.2
1
Title:
50
0
41
1
51
0
7
standard
71
0
210
0
220
0
230
1
100
AcDbText
0
TEXT
5
BA
100
AcDbEntity
8
TITLEBLOCK
6
ByLayer
62
256
370
20
100
AcDbText
10
97.8210526316
20
-176.5
30
0
40
2.2
1
Supplementary information:
50
0
41
1
51
0
7
standard
71
0
210
0
220
0
230
1
100
AcDbText
0
TEXT
5
BB
100
AcDbEntity
8
TITLEBLOCK
6
ByLayer
62
256
370
20
100
AcDbText
10
217.821052632
20
-165.5
30
0
40
2.2
1
Size:
50
0
41
1
51
0
7
standard
71
0
210
0
220
0
230
1
100
AcDbText
0
TEXT
5
BC
100
AcDbEntity
8
TITLEBLOCK
6
ByLayer
62
256
370
20
100
AcDbText
10
217.821052632
20
-176.5
30
0
40
2.2
1
Part number:
50
0
41
1
51
0
7
standard
71
0
210
0
220
0
230
1
100
AcDbText
0
TEXT
5
BD
100
AcDbEntity
8
TITLEBLOCK
6
ByLayer
62
256
370
20
100
AcDbText
10
237.821052632
20
-165.5
30
0
40
2.2
1
Sheet:
50
0
41
1
51
0
7
standard
71
0
210
0
220
0
230
1
100
AcDbText
0
TEXT
5
BE
100
AcDbEntity
8
TITLEBLOCK
6
ByLayer
62
256
370
20
100
AcDbText
10
257.821052632
20
-165.5
30
0
40
2.2
1
Scale:
50
0
41
1
51
0
7
standard
71
0
210
0
220
0
230
1
100
AcDbText
0
TEXT
5
BF
100
AcDbEntity
8
TITLEBLOCK
6
ByLayer
62
256
370
20
100
AcDbText
10
217.821052632
20
-192.5
30
0
40
2.2
1
Date:
50
0
41
1
51
0
7
standard
71
0
210
0
220
0
230
1
100
AcDbText
0
TEXT
5
C0
100
AcDbEntity
8
TITLEBLOCK
6
ByLayer
62
256
370
20
100
AcDbText
10
217.821052632
20
-184.5
30
0
40
2.2
1
Drawing no.:
50
0
41
1
51
0
7
standard
71
0
210
0
220
0
230
1
100
AcDbText
0
TEXT
5
C1
100
AcDbEntity
8
TITLEBLOCK
6
ByLayer
62
256
370
20
100
AcDbText
10
257.821052632
20
-192.5
30
0
40
2.2
1
Revision:
50
0
41
1
51
0
7
standard
71
0
210
0
220
0
230
1
100
AcDbText
0
TEXT
5
C2
100
AcDbEntity
8
TITLEBLOCK
6
ByLayer
62
256
370
35
100
AcDbText
10
126.821052632
20
-171
30
0
40
3.7
1
Troy Sankey
50
0
41
1
51
0
7
standard
71
0
72
1
11
126.821052632
21
-171
31
0
210
0
220
0
230
1
100
AcDbText
0
TEXT
5
C3
100
AcDbEntity
8
TITLEBLOCK
6
ByLayer
62
256
370
35
100
AcDbText
10
186.821052632
20
-171
30
0
40
3.7
1
Long Facer Reamer
50
0
41
1
51
0
7
standard
71
0
72
1
11
186.821052632
21
-171
31
0
210
0
220
0
230
1
100
AcDbText
0
TEXT
5
C4
100
AcDbEntity
8
TITLEBLOCK
6
ByLayer
62
256
370
35
100
AcDbText
10
256.821052632
20
-179
30
0
40
3.7
1
00
50
0
41
1
51
0
7
standard
71
0
72
1
11
256.821052632
21
-179
31
0
210
0
220
0
230
1
100
AcDbText
0
TEXT
5
C5
100
AcDbEntity
8
TITLEBLOCK
6
ByLayer
62
256
370
35
100
AcDbText
10
256.821052632
20
-187
30
0
40
3.7
1
00
50
0
41
1
51
0
7
standard
71
0
72
1
11
256.821052632
21
-187
31
0
210
0
220
0
230
1
100
AcDbText
0
TEXT
5
C6
100
AcDbEntity
8
TITLEBLOCK
6
ByLayer
62
256
370
35
100
AcDbText
10
266.821052632
20
-171
30
0
40
3.7
1
1:1
50
0
41
1
51
0
7
standard
71
0
72
1
11
266.821052632
21
-171
31
0
210
0
220
0
230
1
100
AcDbText
0
TEXT
5
C7
100
AcDbEntity
8
TITLEBLOCK
6
ByLayer
62
256
370
35
100
AcDbText
10
246.821052632
20
-171
30
0
40
3.7
1
1/1
50
0
41
1
51
0
7
standard
71
0
72
1
11
246.821052632
21
-171
31
0
210
0
220
0
230
1
100
AcDbText
0
TEXT
5
C8
100
AcDbEntity
8
TITLEBLOCK
6
ByLayer
62
256
370
35
100
AcDbText
10
156.821052632
20
-189
30
0
40
3.7
1
Threads into Park Tool HTR-1(b) weldment
50
0
41
1
51
0
7
standard
71
0
72
1
11
156.821052632
21
-189
31
0
210
0
220
0
230
1
100
AcDbText
0
TEXT
5
C9
100
AcDbEntity
8
TITLEBLOCK
6
ByLayer
62
256
370
35
100
AcDbText
10
226.821052632
20
-171
30
0
40
3.7
1
A4
50
0
41
1
51
0
7
standard
71
0
72
1
11
226.821052632
21
-171
31
0
210
0
220
0
230
1
100
AcDbText
0
TEXT
5
CA
100
AcDbEntity
8
TITLEBLOCK
6
ByLayer
62
256
370
35
100
AcDbText
10
156.821052632
20
-182
30
0
40
3.7
1
5/8"-8 ACME steel rod stock
50
0
41
1
51
0
7
standard
71
0
72
1
11
156.821052632
21
-182
31
0
210
0
220
0
230
1
100
AcDbText
0
TEXT
5
CB
100
AcDbEntity
8
TITLEBLOCK
6
ByLayer
62
256
370
35
100
AcDbText
10
156.821052632
20
-196
30
0
40
3.7
1
Cuts up to 800mm head tubes
50
0
41
1
51
0
7
standard
71
0
72
1
11
156.821052632
21
-196
31
0
210
0
220
0
230
1
100
AcDbText
0
TEXT
5
CC
100
AcDbEntity
8
TITLEBLOCK
6
ByLayer
62
256
370
35
100
AcDbText
10
266.821052632
20
-198
30
0
40
3.7
1
02
50
0
41
1
51
0
7
standard
71
0
72
1
11
266.821052632
21
-198
31
0
210
0
220
0
230
1
100
AcDbText
0
TEXT
5
CD
100
AcDbEntity
8
TITLEBLOCK
6
ByLayer
62
256
370
35
100
AcDbText
10
236.821052632
20
-198
30
0
40
3.7
1
2017-05-17
50
0
41
1
51
0
7
standard
71
0
72
1
11
236.821052632
21
-198
31
0
210
0
220
0
230
1
100
AcDbText
0
ENDBLK
5
74
330
72
100
AcDbEntity
8
0
100
AcDbBlockEnd
0
BLOCK
5
76
330
75
100
AcDbEntity
8
0
100
AcDbBlockBegin
2
long_reamer_facer_outline-0
70
0
10
0
20
0
3
long_reamer_facer_outline-0
1

0
LWPOLYLINE
5
CE
100
AcDbEntity
8
0
6
ByLayer
62
7
370
-1
100
AcDbPolyline
90
14
70
1
43
0
10
1
20
-5.55625
10
0
20
-4.55625
10
0
20
4.55625
10
1
20
5.55625
10
20
20
5.55625
10
20
20
4.425
10
25
20
4.425
10
25
20
7.9375
10
145
20
7.9375
10
145
20
-7.9375
10
25
20
-7.9375
10
25
20
-4.425
10
20
20
-4.425
10
20
20
-5.55625
0
ENDBLK
5
77
330
75
100
AcDbEntity
8
0
100
AcDbBlockEnd
0
ENDSEC
0
SECTION
2
ENTITIES
0
HATCH
5
CF
100
AcDbEntity
8
hatches
6
ByLayer
62
256
370
-1
100
AcDbHatch
10
0
20
0
30
0
210
0
220
0
230
1
2
iso03w100
70
0
71
0
91
1
92
0
93
78
72
1
10
0
20
-6
11
0
21
0
72
1
10
0
20
0
11
0
21
6
72
1
10
0
20
6
11
20
21
6
72
1
10
20
20
6
11
20
21
5
72
1
10
20
20
5
11
25
21
5
72
1
10
25
20
5
11
35
21
9.525
72
1
10
35
20
9.525
11
110
21
9.525
72
1
10
110
20
9.525
11
110
21
9
72
1
10
110
20
9
11
235
21
9
72
1
10
235
20
9
11
235
21
-9
72
1
10
235
20
-9
11
110
21
-9
72
1
10
110
20
-9
11
110
21
-9.525
72
1
10
110
20
-9.525
11
35
21
-9.525
72
1
10
35
20
-9.525
11
25
21
-5
72
1
10
25
20
-5
11
20
21
-5
72
1
10
20
20
-5
11
20
21
-6
72
1
10
20
20
-6
11
0
21
-6
72
1
10
0
20
-6
11
0
21
0
72
1
10
0
20
0
11
0
21
6
72
1
10
0
20
6
11
20
21
6
72
1
10
20
20
6
11
20
21
5
72
1
10
20
20
5
11
25
21
5
72
1
10
25
20
5
11
30.1829882495
21
7.34530218289
72
1
10
30.1829882495
20
7.34530218289
11
35
21
9.525
72
1
10
35
20
9.525
11
110
21
9.525
72
1
10
110
20
9.525
11
110
21
9
72
1
10
110
20
9
11
235
21
9
72
1
10
235
20
9
11
235
21
-9
72
1
10
235
20
-9
11
110
21
-9
72
1
10
110
20
-9
11
110
21
-9.525
72
1
10
110
20
-9.525
11
35
21
-9.525
72
1
10
35
20
-9.525
11
25
21
-5
72
1
10
25
20
-5
11
20
21
-5
72
1
10
20
20
-5
11
20
21
-6
72
1
10
20
20
-6
11
0
21
-6
72
1
10
0
20
-6
11
0
21
0
72
1
10
0
20
0
11
0
21
6
72
1
10
0
20
6
11
20
21
6
72
1
10
20
20
6
11
20
21
5
72
1
10
20
20
5
11
25
21
5
72
1
10
25
20
5
11
25
21
8
72
1
10
25
20
8
11
35
21
9.525
72
1
10
35
20
9.525
11
110
21
9.525
72
1
10
110
20
9.525
11
110
21
9
72
1
10
110
20
9
11
235
21
9
72
1
10
235
20
9
11
235
21
-9
72
1
10
235
20
-9
11
110
21
-9
72
1
10
110
20
-9
11
110
21
-9.525
72
1
10
110
20
-9.525
11
35
21
-9.525
72
1
10
35
20
-9.525
11
25
21
-8
72
1
10
25
20
-8
11
25
21
-5
72
1
10
25
20
-5
11
20
21
-5
72
1
10
20
20
-5
11
20
21
-6
72
1
10
20
20
-6
11
0
21
-6
72
1
10
0
20
-6
11
0
21
0
72
1
10
0
20
0
11
0
21
6
72
1
10
0
20
6
11
20
21
6
72
1
10
20
20
6
11
20
21
5
72
1
10
20
20
5
11
25
21
5
72
1
10
25
20
5
11
25
21
8
72
1
10
25
20
8
11
29.732226811
21
8.72166458868
72
1
10
29.732226811
20
8.72166458868
11
35
21
9.525
72
1
10
35
20
9.525
11
110
21
9.525
72
1
10
110
20
9.525
11
110
21
9
72
1
10
110
20
9
11
235
21
9
72
1
10
235
20
9
11
235
21
-9
72
1
10
235
20
-9
11
110
21
-9
72
1
10
110
20
-9
11
110
21
-9.525
72
1
10
110
20
-9.525
11
35
21
-9.525
72
1
10
35
20
-9.525
11
25
21
-8
72
1
10
25
20
-8
11
25
21
-5
72
1
10
25
20
-5
11
20
21
-5
72
1
10
20
20
-5
11
20
21
-6
72
1
10
20
20
-6
11
0
21
-6
72
1
10
0
20
-6
11
20
21
-6
72
1
10
20
20
-6
11
20
21
6
72
1
10
20
20
6
11
0
21
6
72
1
10
0
20
6
11
0
21
-6
97
0
75
0
76
1
52
1.74532925199
41
0.1
77
0
78
0
98
0
0
LEADER
5
D0
100
AcDbEntity
8
dimensions
6
ByLayer
62
256
370
-1
100
AcDbLeader
3
Standard
71
1
72
0
73
3
74
0
75
0
40
1
41
10
76
0
76
0
0
LEADER
5
D1
100
AcDbEntity
8
dimensions
6
ByLayer
62
256
370
-1
100
AcDbLeader
3
Standard
71
1
72
0
73
3
74
0
75
0
40
1
41
10
76
0
76
0
0
LINE
5
D2
100
AcDbEntity
8
edges
6
ByLayer
62
256
370
-1
100
AcDbLine
10
20
20
5
11
20
21
-5
0
INSERT
5
D3
100
AcDbEntity
8
outline
6
ByLayer
62
256
370
-1
100
AcDbBlockReference
2
long_reamer_facer_outline-0
10
0
20
0
30
0
41
1
42
1
43
0
50
0
70
1
71
1
44
0
45
0
0
DIMENSION
5
D4
100
AcDbEntity
8
dimensions
6
ByLayer
62
256
370
-1
100
AcDbDimension
2
*D3
10
28
20
-4.425
30
0
11
31
21
2.2962127484e-16
31
0
70
32
1
%%C<>
71
5
72
0
3
Standard
53
0
210
0
220
0
230
1
100
AcDbAlignedDimension
13
25
23
4.425
33
0
14
25
24
-4.425
34
0
50
90
100
AcDbRotatedDimension
0
MTEXT
5
D5
100
AcDbEntity
8
dimensions
6
ByLayer
62
256
370
-1
100
AcDbMText
10
31.4584242424
20
-20
30
0
40
3
41
43.3333348762
71
4
72
1
1
cut 7/16"-20 threads
7
iso
210
0
220
0
230
1
50
0
73
2
44
1
0
LINE
5
D6
100
AcDbEntity
8
edges
6
ByLayer
62
256
370
-1
100
AcDbLine
10
25
20
4.425
11
25
21
-4.425
0
DIMENSION
5
D7
100
AcDbEntity
8
dimensions
6
ByLayer
62
256
370
-1
100
AcDbDimension
2
*D4
10
110
20
20
30
0
11
85
21
21.875
31
0
70
32
1
875mm or longer (not to scale)
71
5
3
Standard
53
0
210
0
220
0
230
1
100
AcDbAlignedDimension
13
25
23
7.9375
33
0
14
145
24
7.9375
34
0
100
AcDbRotatedDimension
0
DIMENSION
5
D8
100
AcDbEntity
8
dimensions
6
ByLayer
62
256
370
-1
100
AcDbDimension
2
*D5
10
25
20
20
30
0
11
10
21
21.875
31
0
70
32
1
<>mm
71
5
3
Standard
53
0
210
0
220
0
230
1
100
AcDbAlignedDimension
13
0
23
4.55625
33
0
14
20
24
5.55625
34
0
100
AcDbRotatedDimension
0
LEADER
5
D9
100
AcDbEntity
8
dimensions
6
ByLayer
62
256
370
-1
100
AcDbLeader
3
Standard
71
1
72
0
73
3
74
0
75
0
40
1
41
10
76
3
76
3
10
-0.108793627882
20
-5.71166546381
30
0
10
-11
20
-20
30
0
10
-14
20
-20
30
0
0
LEADER
5
DA
100
AcDbEntity
8
dimensions
6
ByLayer
62
256
370
-1
100
AcDbLeader
3
Standard
71
1
72
0
73
3
74
0
75
0
40
1
41
10
76
3
76
3
10
13.6666666667
20
-5.55625
30
0
10
25
20
-20
30
0
10
30
20
-20
30
0
0
LEADER
5
DB
100
AcDbEntity
8
dimensions
6
ByLayer
62
256
370
-1
100
AcDbLeader
3
Standard
71
1
72
0
73
3
74
0
75
0
40
1
41
10
76
0
76
0
0
MTEXT
5
DC
100
AcDbEntity
8
dimensions
6
ByLayer
62
256
370
-1
100
AcDbMText
10
-15
20
-20.0800738962
30
0
40
3
41
9.66666666667
71
6
72
1
1
bevel
7
iso
210
0
220
0
230
1
50
0
73
2
44
1
0
LEADER
5
DD
100
AcDbEntity
8
dimensions
6
ByLayer
62
256
370
-1
100
AcDbLeader
3
Standard
71
1
72
0
73
3
74
0
75
0
40
1
41
10
76
3
76
3
10
85
20
-7.9375
30
0
10
92
20
-20
30
0
10
95
20
-20
30
0
0
INSERT
5
DE
100
AcDbEntity
8
infobox
6
ByLayer
62
256
370
-1
100
AcDbBlockReference
2
A4_Landscape_ISO7200-0
10
-80
20
100
30
0
41
1
42
1
43
0
50
0
70
1
71
1
44
0
45
0
0
DIMENSION
5
DF
100
AcDbEntity
8
dimensions
6
ByLayer
62
256
370
-1
100
AcDbDimension
2
*D10
10
-10
20
-5.55625
30
0
11
-10
21
0
31
0
70
32
1
%%C<>mm
71
5
3
Standard
53
0
210
0
220
0
230
1
100
AcDbAlignedDimension
13
1
23
5.55625
33
0
14
1
24
-5.55625
34
0
50
90
100
AcDbRotatedDimension
0
DIMENSION
5
E0
100
AcDbEntity
8
dimensions
6
ByLayer
62
256
370
-1
100
AcDbDimension
2
*D11
10
25
20
25
30
0
11
22.5
21
26.875
31
0
70
32
71
5
72
0
3
Standard
53
0
210
0
220
0
230
1
100
AcDbAlignedDimension
13
20
23
5.55625
33
0
14
25
24
7.9375
34
0
100
AcDbRotatedDimension
0
DIMENSION
5
E1
100
AcDbEntity
8
dimensions
6
ByLayer
62
256
370
-1
100
AcDbDimension
2
*D12
10
78.875
20
-7.9375
30
0
11
77
21
2.2962127484e-16
31
0
70
32
1
%%C15.48
71
5
3
Standard
53
0
210
0
220
0
230
1
100
AcDbAlignedDimension
13
78.875
23
7.9375
33
0
14
78.875
24
-7.9375
34
0
50
90
100
AcDbRotatedDimension
0
MTEXT
5
E2
100
AcDbEntity
8
dimensions
6
ByLayer
62
256
370
-1
100
AcDbMText
10
96
20
-20
30
0
40
3
41
49.4166666667
71
4
72
1
1
stock ACME 5/8"-8\Pturned down to 15.48mm
7
iso
210
0
220
0
230
1
50
0
73
2
44
1
0
ENDSEC
0
SECTION
2
OBJECTS
0
DICTIONARY
5
C
330
0
100
AcDbDictionary
281
1
3
ACAD_GROUP
350
D
0
DICTIONARY
5
D
330
C
100
AcDbDictionary
281
1
0
ENDSEC
0
EOF
